<?xml version="1.0" encoding="UTF-8"?>
<svg id="Layer_2" data-name="Layer 2" xmlns="http://www.w3.org/2000/svg" viewBox="0 0 103.65 35">
  <defs>
    <style>
      .cls-1 {
        opacity: .8;
      }

      .cls-1, .cls-2, .cls-3 {
        fill: #fff;
        fill-rule: evenodd;
        isolation: isolate;
      }

      .cls-2 {
        opacity: .8;
      }

      .cls-3 {
        opacity: .81;
      }
    </style>
  </defs>
  <g id="Layer_1-2" data-name="Layer 1">
    <path class="cls-2" d="m20.73.2c1.22.53,2.39,1.19,3.5,2,.67,10.33.67,20.67,0,31-2.63,2.69-4.97,2.36-7-1-6.83,4.75-12.16,3.42-16-4C-1.02,22.22-.19,16.72,3.73,11.7c4.71-3.48,9.21-3.32,13.5.5.33-3.33.67-6.67,1-10,1-.57,1.83-1.23,2.5-2Zm-10,15c4.64-.03,6.97,2.31,7,7-1,7.36-4.16,8.69-9.5,4-1.19-4.28-.35-7.95,2.5-11Z"/>
    <path class="cls-3" d="m59.73,0c1.52.01,2.68.68,3.5,2,.33,5.33.67,10.67,1,16,2.36-3.86,5.52-6.86,9.5-9,1.67.33,2.67,1.33,3,3-1.24,2.59-2.91,4.92-5,7,2.55,4.05,4.88,8.22,7,12.5-.71,2.72-2.38,3.72-5,3-2.62-3.41-5.12-6.91-7.5-10.5-2.09,2.54-3.09,5.54-3,9-2,2.67-4,2.67-6,0-.67-10.33-.67-20.67,0-31,.99-.57,1.83-1.23,2.5-2Z"/>
    <path class="cls-1" d="m37.73,9.15c11.72.44,16.55,6.44,14.5,18-4.62,8.09-11.12,9.93-19.5,5.5-5.45-5.52-6.28-11.69-2.5-18.5,2.17-2.32,4.67-3.99,7.5-5Zm1,6c5.87.7,8.03,4.04,6.5,10-2.19,4.37-5.19,5.04-9,2-.67-3-.67-6,0-9,.7-1.19,1.53-2.19,2.5-3Z"/>
    <path class="cls-1" d="m88.69,9.15c11.72.44,16.55,6.44,14.5,18-4.62,8.09-11.12,9.93-19.5,5.5-5.45-5.52-6.28-11.69-2.5-18.5,2.17-2.32,4.67-3.99,7.5-5Zm1,6c5.87.7,8.03,4.04,6.5,10-2.19,4.37-5.19,5.04-9,2-.67-3-.67-6,0-9,.7-1.19,1.53-2.19,2.5-3Z"/>
  </g>
</svg>