<svg width="35" height="34" viewBox="0 0 35 34" fill="none" xmlns="http://www.w3.org/2000/svg">
<path d="M7.9278 33.3813V10.8577H0.44128V33.3813H7.92858H7.9278ZM4.1861 7.78299C6.79626 7.78299 8.42126 6.05343 8.42126 3.89198C8.3724 1.68128 6.79626 0 4.23574 0C1.67346 0 0 1.68128 0 3.89179C0 6.05324 1.62441 7.78279 4.13705 7.78279H4.18552L4.1861 7.78299ZM12.0717 33.3813H19.5576V20.8045C19.5576 20.1322 19.6065 19.4582 19.8043 18.978C20.3452 17.6324 21.577 16.2396 23.6456 16.2396C26.3539 16.2396 27.4379 18.3049 27.4379 21.3331V33.3813H34.9237V20.467C34.9237 13.5489 31.2308 10.3296 26.3054 10.3296C22.2673 10.3296 20.4937 12.5866 19.5084 14.1239H19.5582V10.8585H12.0721C12.1698 12.9714 12.0715 33.3821 12.0715 33.3821L12.0717 33.3813Z" fill="white"/>
</svg>
